<?xml version="1.0"?>
<svg xmlns:xlink="http://www.w3.org/1999/xlink" xmlns="http://www.w3.org/2000/svg" version="1.2" preserveAspectRatio="xMidYMid meet" viewBox="85.5 72.749998254 230.25 212.999994888" zoomAndPan="magnify" style="max-height: 500px;background-color:transparent;" width="230.25" height="212.999994888">
  <defs>
    <clipPath id="8a8d65e93c">
      <path d="M 143 88 L 187 88 L 187 96 L 143 96 Z M 143 88"/>
    </clipPath>
    <clipPath id="49f1576b17">
      <path d="M 144.015625 95.96875 L 143.488281 88.488281 L 186.132812 85.484375 L 186.660156 92.96875 Z M 144.015625 95.96875"/>
    </clipPath>
    <clipPath id="243fa18188">
      <path d="M 144.015625 95.96875 L 143.488281 88.488281 L 186.132812 85.484375 L 186.660156 92.96875 Z M 144.015625 95.96875"/>
    </clipPath>
    <clipPath id="6273b9318f">
      <path d="M 79 87 L 148 87 L 148 100 L 79 100 Z M 79 87"/>
    </clipPath>
    <clipPath id="05e81e429b">
      <path d="M 79.914062 99.511719 L 79.070312 87.542969 L 147.152344 82.75 L 147.996094 94.71875 Z M 79.914062 99.511719"/>
    </clipPath>
    <clipPath id="a9d3874c7a">
      <path d="M 79.914062 99.511719 L 79.070312 87.542969 L 147.152344 82.75 L 147.996094 94.71875 Z M 79.914062 99.511719"/>
    </clipPath>
    <clipPath id="1aefb59e15">
      <path d="M 143 88 L 187 88 L 187 96 L 143 96 Z M 143 88"/>
    </clipPath>
    <clipPath id="a69f340fc2">
      <path d="M 144.015625 95.96875 L 143.488281 88.488281 L 186.132812 85.484375 L 186.660156 92.96875 Z M 144.015625 95.96875"/>
    </clipPath>
    <clipPath id="2b38782576">
      <path d="M 144.015625 95.96875 L 143.488281 88.488281 L 186.132812 85.484375 L 186.660156 92.96875 Z M 144.015625 95.96875"/>
    </clipPath>
    <clipPath id="daca67106c">
      <path d="M 79 87 L 148 87 L 148 100 L 79 100 Z M 79 87"/>
    </clipPath>
    <clipPath id="3c3d1a3b4b">
      <path d="M 79.914062 99.511719 L 79.070312 87.542969 L 147.152344 82.75 L 147.996094 94.71875 Z M 79.914062 99.511719"/>
    </clipPath>
    <clipPath id="fe3b36a9da">
      <path d="M 79.914062 99.511719 L 79.070312 87.542969 L 147.152344 82.75 L 147.996094 94.71875 Z M 79.914062 99.511719"/>
    </clipPath>
  </defs>
  <g id="2f1b3cb726">
    <rect style="fill:none;fill-opacity:1;stroke:none;" height="374.999991" y="0" width="375" x="0"/>
    <rect style="fill:none;fill-opacity:1;stroke:none;" height="374.999991" y="0" width="375" x="0"/>
    <g clip-path="url(#8a8d65e93c)" clip-rule="nonzero">
      <g clip-path="url(#49f1576b17)" clip-rule="nonzero">
        <g clip-path="url(#243fa18188)" clip-rule="nonzero">
          <path d="M 186.515625 91.742188 C 186.511719 91.738281 186.511719 91.734375 186.511719 91.734375 C 186.507812 91.636719 186.429688 91.5625 186.335938 91.554688 L 143.78125 88.679688 C 143.726562 88.675781 143.671875 88.695312 143.632812 88.734375 C 143.59375 88.773438 143.574219 88.828125 143.578125 88.886719 L 144.0625 95.773438 C 144.066406 95.824219 144.089844 95.875 144.128906 95.90625 C 144.167969 95.9375 144.21875 95.957031 144.269531 95.949219 L 186.339844 91.9375 C 186.4375 91.925781 186.515625 91.84375 186.515625 91.742188 Z M 186.515625 91.742188" style="stroke:none;fill-rule:nonzero;fill:none;fill-opacity:1;"/>
        </g>
      </g>
    </g>
    <g clip-path="url(#6273b9318f)" clip-rule="nonzero">
      <g clip-path="url(#05e81e429b)" clip-rule="nonzero">
        <g clip-path="url(#a9d3874c7a)" clip-rule="nonzero">
          <path d="M 147.796875 92.761719 C 147.796875 92.753906 147.796875 92.75 147.796875 92.746094 C 147.785156 92.59375 147.664062 92.472656 147.511719 92.460938 L 79.5 87.867188 C 79.410156 87.859375 79.324219 87.890625 79.261719 87.953125 C 79.199219 88.015625 79.167969 88.105469 79.175781 88.191406 L 79.949219 99.203125 C 79.953125 99.285156 79.992188 99.363281 80.054688 99.414062 C 80.117188 99.46875 80.203125 99.492188 80.285156 99.484375 L 147.519531 93.070312 C 147.679688 93.054688 147.800781 92.921875 147.796875 92.761719 Z M 147.796875 92.761719" style="stroke:none;fill-rule:nonzero;fill:none;fill-opacity:1;"/>
        </g>
      </g>
    </g>
    <g style="fill:#0a0a0a;fill-opacity:1;">
      <g transform="translate(163.208483, 247.514925)">
        <path d="M 56.402344 6.183594 C 44.542969 6.183594 32.773438 4.304688 21.09375 0.542969 C 9.335938 -3.242188 -0.679688 -8.460938 -8.957031 -15.113281 L -12.144531 -17.679688 L 17.648438 -59.449219 L 21.054688 -53.777344 C 21.257812 -53.4375 22.433594 -52.386719 24.589844 -50.625 C 26.890625 -48.742188 30.097656 -46.753906 34.210938 -44.660156 C 38.382812 -42.539062 43.085938 -40.667969 48.324219 -39.042969 C 53.375 -37.476562 58.6875 -36.695312 64.261719 -36.695312 C 68.621094 -36.695312 72.042969 -37.203125 74.519531 -38.21875 C 76.621094 -39.082031 78.082031 -40.210938 78.898438 -41.601562 C 79.8125 -43.160156 80.269531 -44.933594 80.269531 -46.925781 C 80.269531 -48.984375 79.367188 -50.664062 77.566406 -51.957031 C 74.902344 -53.871094 71.335938 -55.605469 66.875 -57.164062 C 62.042969 -58.851562 56.628906 -60.695312 50.640625 -62.691406 L 50.585938 -62.707031 L 50.535156 -62.726562 C 42.972656 -65.460938 36.585938 -68.542969 31.371094 -71.964844 C 25.851562 -75.585938 21.683594 -79.902344 18.875 -84.90625 C 16.039062 -89.957031 14.621094 -95.867188 14.621094 -102.632812 C 14.621094 -113.335938 16.742188 -122.886719 20.980469 -131.285156 C 25.195312 -139.632812 30.90625 -146.664062 38.105469 -152.375 C 45.203125 -158 53.1875 -162.320312 62.058594 -165.332031 C 70.910156 -168.335938 80.042969 -169.839844 89.457031 -169.839844 C 97.253906 -169.839844 104.617188 -168.859375 111.554688 -166.902344 C 118.382812 -164.976562 124.621094 -162.558594 130.273438 -159.652344 C 135.832031 -156.792969 140.695312 -153.921875 144.859375 -151.039062 L 148.523438 -148.5 L 116.949219 -105.5625 L 115.023438 -115.1875 C 115.101562 -114.800781 115.222656 -114.484375 115.390625 -114.242188 C 115.375 -114.269531 115.308594 -114.335938 115.199219 -114.449219 C 114.765625 -114.882812 114.082031 -115.4375 113.148438 -116.113281 C 111.097656 -117.597656 108.359375 -119.214844 104.9375 -120.960938 C 101.535156 -122.699219 97.71875 -124.222656 93.488281 -125.539062 C 89.4375 -126.792969 85.320312 -127.421875 81.136719 -127.421875 C 77.410156 -127.421875 74.273438 -126.882812 71.734375 -125.804688 C 69.4375 -124.828125 67.71875 -123.496094 66.578125 -121.8125 C 65.457031 -120.160156 64.894531 -118.082031 64.894531 -115.578125 C 64.894531 -113.972656 65.511719 -112.640625 66.742188 -111.578125 C 68.566406 -110.007812 71.300781 -108.582031 74.945312 -107.296875 L 89.527344 -102.089844 L 88.070312 -98.007812 L 89.367188 -102.144531 C 97.519531 -99.585938 104.652344 -96.578125 110.777344 -93.113281 C 117.21875 -89.46875 122.285156 -84.941406 125.976562 -79.53125 C 129.792969 -73.941406 131.699219 -66.847656 131.699219 -58.25 C 131.699219 -46.578125 129.445312 -36.570312 124.9375 -28.222656 C 120.449219 -19.910156 114.53125 -13.203125 107.179688 -8.109375 C 99.976562 -3.117188 91.921875 0.523438 83.023438 2.8125 C 74.269531 5.058594 65.394531 6.183594 56.402344 6.183594 Z M 56.402344 -2.484375 C 64.664062 -2.484375 72.820312 -3.519531 80.867188 -5.585938 C 88.761719 -7.613281 95.886719 -10.832031 102.242188 -15.234375 C 108.457031 -19.542969 113.476562 -25.242188 117.3125 -32.339844 C 121.125 -39.402344 123.03125 -48.039062 123.03125 -58.25 C 123.03125 -65.0625 121.625 -70.527344 118.816406 -74.644531 C 115.882812 -78.945312 111.777344 -82.585938 106.507812 -85.570312 C 100.917969 -88.730469 94.339844 -91.5 86.773438 -93.875 L 86.691406 -93.898438 L 72.066406 -99.121094 C 67.394531 -100.765625 63.730469 -102.730469 61.082031 -105.011719 C 57.847656 -107.804688 56.226562 -111.324219 56.226562 -115.578125 C 56.226562 -119.851562 57.285156 -123.554688 59.402344 -126.675781 C 61.496094 -129.769531 64.476562 -132.136719 68.34375 -133.78125 C 71.96875 -135.320312 76.230469 -136.089844 81.136719 -136.089844 C 86.195312 -136.089844 91.171875 -135.332031 96.058594 -133.816406 C 100.761719 -132.355469 105.039062 -130.644531 108.878906 -128.683594 C 112.699219 -126.730469 115.820312 -124.882812 118.234375 -123.132812 C 119.539062 -122.1875 120.570312 -121.335938 121.328125 -120.578125 C 122.542969 -119.363281 123.277344 -118.132812 123.523438 -116.890625 L 119.273438 -116.039062 L 115.785156 -118.605469 L 138.898438 -150.042969 L 142.390625 -147.476562 L 139.921875 -143.914062 C 136.070312 -146.578125 131.535156 -149.253906 126.308594 -151.941406 C 121.171875 -154.585938 115.46875 -156.789062 109.199219 -158.5625 C 103.035156 -160.300781 96.453125 -161.171875 89.457031 -161.171875 C 80.996094 -161.171875 72.792969 -159.824219 64.84375 -157.125 C 56.921875 -154.433594 49.804688 -150.585938 43.492188 -145.582031 C 37.285156 -140.660156 32.359375 -134.59375 28.71875 -127.375 C 25.097656 -120.207031 23.289062 -111.960938 23.289062 -102.632812 C 23.289062 -97.378906 24.335938 -92.882812 26.433594 -89.152344 C 28.554688 -85.375 31.785156 -82.058594 36.125 -79.210938 C 40.773438 -76.160156 46.558594 -73.382812 53.484375 -70.878906 L 52.007812 -66.804688 L 53.378906 -70.914062 C 59.410156 -68.90625 64.859375 -67.050781 69.734375 -65.347656 C 74.984375 -63.515625 79.277344 -61.398438 82.621094 -58.996094 C 86.832031 -55.976562 88.9375 -51.949219 88.9375 -46.925781 C 88.9375 -43.367188 88.082031 -40.132812 86.375 -37.21875 C 84.574219 -34.144531 81.71875 -31.804688 77.808594 -30.199219 C 74.277344 -28.75 69.761719 -28.027344 64.261719 -28.027344 C 57.8125 -28.027344 51.644531 -28.941406 45.757812 -30.765625 C 40.050781 -32.53125 34.890625 -34.589844 30.28125 -36.9375 C 25.609375 -39.3125 21.882812 -41.636719 19.097656 -43.917969 C 16.167969 -46.316406 14.339844 -48.117188 13.621094 -49.316406 L 17.335938 -51.546875 L 20.863281 -49.03125 L -2.710938 -15.976562 L -6.242188 -18.492188 L -3.527344 -21.871094 C 3.917969 -15.886719 13.007812 -11.167969 23.75 -7.707031 C 34.566406 -4.226562 45.453125 -2.484375 56.402344 -2.484375 Z M 56.402344 -2.484375" style="stroke:none"/>
      </g>
    </g>
    <g clip-path="url(#1aefb59e15)" clip-rule="nonzero">
      <g clip-path="url(#a69f340fc2)" clip-rule="nonzero">
        <g clip-path="url(#2b38782576)" clip-rule="nonzero">
          <path d="M 186.515625 91.742188 C 186.511719 91.738281 186.511719 91.734375 186.511719 91.734375 C 186.507812 91.636719 186.429688 91.5625 186.335938 91.554688 L 143.78125 88.679688 C 143.726562 88.675781 143.671875 88.695312 143.632812 88.734375 C 143.59375 88.773438 143.574219 88.828125 143.578125 88.886719 L 144.0625 95.773438 C 144.066406 95.824219 144.089844 95.875 144.128906 95.90625 C 144.167969 95.9375 144.21875 95.957031 144.269531 95.949219 L 186.339844 91.9375 C 186.4375 91.925781 186.515625 91.84375 186.515625 91.742188 Z M 186.515625 91.742188" style="stroke:none;fill-rule:nonzero;fill:none;fill-opacity:1;"/>
        </g>
      </g>
    </g>
    <g style="fill:#0a0a0a;fill-opacity:1;">
      <g transform="translate(67.951842, 251.374587)">
        <path d="M 149.140625 -174.34375 L 143.125 -135.953125 L 105.671875 -135.953125 L 84.15625 0 L 38.84375 0 L 60.34375 -135.953125 L 22.890625 -135.953125 L 28.90625 -174.34375 Z M 149.140625 -174.34375" style="stroke:none"/>
      </g>
    </g>
    <g clip-path="url(#daca67106c)" clip-rule="nonzero">
      <g clip-path="url(#3c3d1a3b4b)" clip-rule="nonzero">
        <g clip-path="url(#fe3b36a9da)" clip-rule="nonzero">
          <path d="M 147.796875 92.761719 C 147.796875 92.753906 147.796875 92.75 147.796875 92.746094 C 147.785156 92.59375 147.664062 92.472656 147.511719 92.460938 L 79.5 87.867188 C 79.410156 87.859375 79.324219 87.890625 79.261719 87.953125 C 79.199219 88.015625 79.167969 88.105469 79.175781 88.191406 L 79.949219 99.203125 C 79.953125 99.285156 79.992188 99.363281 80.054688 99.414062 C 80.117188 99.46875 80.203125 99.492188 80.285156 99.484375 L 147.519531 93.070312 C 147.679688 93.054688 147.800781 92.921875 147.796875 92.761719 Z M 147.796875 92.761719" style="stroke:none;fill-rule:nonzero;fill:none;fill-opacity:1;"/>
        </g>
      </g>
    </g>
    <g style="fill:#000000;fill-opacity:1;">
      <g transform="translate(93.003308, 278.218107)">
        <path d="M 5.96875 -11.859375 L 1.265625 -11.859375 L 1.96875 -15.296875 L 15.65625 -15.296875 L 14.96875 -11.859375 L 10.28125 -11.859375 L 7.90625 0 L 3.578125 0 Z M 5.96875 -11.859375" style="stroke:none"/>
      </g>
    </g>
    <g style="fill:#000000;fill-opacity:1;">
      <g transform="translate(105.716149, 278.218107)">
        <path d="M 17.9375 -15.296875 L 14.875 0 L 10.546875 0 L 11.734375 -5.9375 L 5.859375 -5.9375 L 4.671875 0 L 0.34375 0 L 3.40625 -15.296875 L 7.734375 -15.296875 L 6.59375 -9.5625 L 12.46875 -9.5625 L 13.609375 -15.296875 Z M 17.9375 -15.296875" style="stroke:none"/>
      </g>
    </g>
    <g style="fill:#000000;fill-opacity:1;">
      <g transform="translate(122.164272, 278.218107)">
        <path d="M 6.984375 -11.953125 L 6.484375 -9.375 L 13.28125 -9.375 L 12.640625 -6.140625 L 5.828125 -6.140625 L 5.28125 -3.34375 L 13.296875 -3.34375 L 12.609375 0 L 0.34375 0 L 3.40625 -15.296875 L 15.375 -15.296875 L 14.703125 -11.953125 Z M 6.984375 -11.953125" style="stroke:none"/>
      </g>
    </g>
    <g style="fill:#000000;fill-opacity:1;">
      <g transform="translate(135.685339, 278.218107)">
        <path d="" style="stroke:none"/>
      </g>
    </g>
    <g style="fill:#000000;fill-opacity:1;">
      <g transform="translate(140.883943, 278.218107)">
        <path d="M 6.046875 0.3125 C 4.785156 0.3125 3.585938 0.160156 2.453125 -0.140625 C 1.316406 -0.453125 0.390625 -0.847656 -0.328125 -1.328125 L 1.375 -4.5625 C 2.144531 -4.070312 2.96875 -3.695312 3.84375 -3.4375 C 4.71875 -3.1875 5.59375 -3.0625 6.46875 -3.0625 C 7.289062 -3.0625 7.929688 -3.179688 8.390625 -3.421875 C 8.859375 -3.660156 9.09375 -3.988281 9.09375 -4.40625 C 9.09375 -4.769531 8.882812 -5.050781 8.46875 -5.25 C 8.050781 -5.457031 7.40625 -5.679688 6.53125 -5.921875 C 5.539062 -6.179688 4.71875 -6.445312 4.0625 -6.71875 C 3.40625 -6.988281 2.835938 -7.398438 2.359375 -7.953125 C 1.890625 -8.503906 1.65625 -9.234375 1.65625 -10.140625 C 1.65625 -11.234375 1.953125 -12.1875 2.546875 -13 C 3.148438 -13.820312 4.003906 -14.457031 5.109375 -14.90625 C 6.210938 -15.363281 7.507812 -15.59375 9 -15.59375 C 10.09375 -15.59375 11.113281 -15.476562 12.0625 -15.25 C 13.007812 -15.03125 13.820312 -14.707031 14.5 -14.28125 L 12.9375 -11.078125 C 12.332031 -11.453125 11.671875 -11.738281 10.953125 -11.9375 C 10.234375 -12.132812 9.492188 -12.234375 8.734375 -12.234375 C 7.878906 -12.234375 7.207031 -12.09375 6.71875 -11.8125 C 6.226562 -11.539062 5.984375 -11.1875 5.984375 -10.75 C 5.984375 -10.363281 6.191406 -10.066406 6.609375 -9.859375 C 7.035156 -9.660156 7.691406 -9.445312 8.578125 -9.21875 C 9.566406 -8.96875 10.382812 -8.710938 11.03125 -8.453125 C 11.6875 -8.191406 12.242188 -7.789062 12.703125 -7.25 C 13.171875 -6.707031 13.40625 -6.003906 13.40625 -5.140625 C 13.40625 -4.054688 13.101562 -3.101562 12.5 -2.28125 C 11.894531 -1.457031 11.035156 -0.816406 9.921875 -0.359375 C 8.804688 0.0859375 7.515625 0.3125 6.046875 0.3125 Z M 6.046875 0.3125" style="stroke:none"/>
      </g>
    </g>
    <g style="fill:#000000;fill-opacity:1;">
      <g transform="translate(153.85891, 278.218107)">
        <path d="M 8.6875 0.3125 C 7.144531 0.3125 5.789062 0.03125 4.625 -0.53125 C 3.46875 -1.09375 2.570312 -1.882812 1.9375 -2.90625 C 1.3125 -3.925781 1 -5.097656 1 -6.421875 C 1 -8.171875 1.398438 -9.742188 2.203125 -11.140625 C 3.015625 -12.535156 4.148438 -13.625 5.609375 -14.40625 C 7.066406 -15.195312 8.726562 -15.59375 10.59375 -15.59375 C 12.007812 -15.59375 13.257812 -15.34375 14.34375 -14.84375 C 15.4375 -14.34375 16.253906 -13.632812 16.796875 -12.71875 L 13.671875 -10.21875 C 12.929688 -11.414062 11.8125 -12.015625 10.3125 -12.015625 C 9.332031 -12.015625 8.472656 -11.785156 7.734375 -11.328125 C 6.992188 -10.867188 6.414062 -10.234375 6 -9.421875 C 5.582031 -8.617188 5.375 -7.710938 5.375 -6.703125 C 5.375 -5.671875 5.707031 -4.84375 6.375 -4.21875 C 7.050781 -3.59375 7.960938 -3.28125 9.109375 -3.28125 C 10.566406 -3.28125 11.8125 -3.867188 12.84375 -5.046875 L 15.40625 -2.53125 C 14.570312 -1.53125 13.597656 -0.804688 12.484375 -0.359375 C 11.378906 0.0859375 10.113281 0.3125 8.6875 0.3125 Z M 8.6875 0.3125" style="stroke:none"/>
      </g>
    </g>
    <g style="fill:#000000;fill-opacity:1;">
      <g transform="translate(168.821659, 278.218107)">
        <path d="M 8.609375 0.3125 C 7.066406 0.3125 5.722656 0.03125 4.578125 -0.53125 C 3.429688 -1.101562 2.546875 -1.898438 1.921875 -2.921875 C 1.304688 -3.941406 1 -5.109375 1 -6.421875 C 1 -8.171875 1.398438 -9.742188 2.203125 -11.140625 C 3.015625 -12.535156 4.144531 -13.625 5.59375 -14.40625 C 7.050781 -15.195312 8.703125 -15.59375 10.546875 -15.59375 C 12.085938 -15.59375 13.429688 -15.304688 14.578125 -14.734375 C 15.722656 -14.171875 16.601562 -13.378906 17.21875 -12.359375 C 17.84375 -11.335938 18.15625 -10.175781 18.15625 -8.875 C 18.15625 -7.125 17.75 -5.546875 16.9375 -4.140625 C 16.132812 -2.742188 15.003906 -1.648438 13.546875 -0.859375 C 12.097656 -0.078125 10.453125 0.3125 8.609375 0.3125 Z M 8.984375 -3.28125 C 9.941406 -3.28125 10.785156 -3.519531 11.515625 -4 C 12.242188 -4.476562 12.800781 -5.117188 13.1875 -5.921875 C 13.582031 -6.734375 13.78125 -7.628906 13.78125 -8.609375 C 13.78125 -9.640625 13.460938 -10.460938 12.828125 -11.078125 C 12.203125 -11.703125 11.316406 -12.015625 10.171875 -12.015625 C 9.210938 -12.015625 8.367188 -11.773438 7.640625 -11.296875 C 6.910156 -10.816406 6.347656 -10.171875 5.953125 -9.359375 C 5.566406 -8.546875 5.375 -7.65625 5.375 -6.6875 C 5.375 -5.65625 5.691406 -4.828125 6.328125 -4.203125 C 6.960938 -3.585938 7.847656 -3.28125 8.984375 -3.28125 Z M 8.984375 -3.28125" style="stroke:none"/>
      </g>
    </g>
    <g style="fill:#000000;fill-opacity:1;">
      <g transform="translate(186.143527, 278.218107)">
        <path d="M 16.09375 -10.421875 C 16.09375 -9.023438 15.722656 -7.816406 14.984375 -6.796875 C 14.242188 -5.785156 13.203125 -5.050781 11.859375 -4.59375 L 14.453125 0 L 9.9375 0 L 7.671875 -4.0625 L 5.484375 -4.0625 L 4.671875 0 L 0.34375 0 L 3.40625 -15.296875 L 9.9375 -15.296875 C 11.882812 -15.296875 13.394531 -14.863281 14.46875 -14 C 15.550781 -13.144531 16.09375 -11.953125 16.09375 -10.421875 Z M 11.734375 -10 C 11.734375 -10.625 11.519531 -11.09375 11.09375 -11.40625 C 10.675781 -11.726562 10.085938 -11.890625 9.328125 -11.890625 L 7.0625 -11.890625 L 6.140625 -7.40625 L 8.71875 -7.40625 C 9.675781 -7.40625 10.414062 -7.628906 10.9375 -8.078125 C 11.46875 -8.535156 11.734375 -9.175781 11.734375 -10 Z M 11.734375 -10" style="stroke:none"/>
      </g>
    </g>
    <g style="fill:#000000;fill-opacity:1;">
      <g transform="translate(201.149957, 278.218107)">
        <path d="M 6.984375 -11.953125 L 6.484375 -9.375 L 13.28125 -9.375 L 12.640625 -6.140625 L 5.828125 -6.140625 L 5.28125 -3.34375 L 13.296875 -3.34375 L 12.609375 0 L 0.34375 0 L 3.40625 -15.296875 L 15.375 -15.296875 L 14.703125 -11.953125 Z M 6.984375 -11.953125" style="stroke:none"/>
      </g>
    </g>
    <g style="fill:#000000;fill-opacity:1;">
      <g transform="translate(214.671024, 278.218107)">
        <path d="M 13.71875 -7.890625 C 14.375 -7.597656 14.878906 -7.191406 15.234375 -6.671875 C 15.585938 -6.148438 15.765625 -5.539062 15.765625 -4.84375 C 15.765625 -3.257812 15.117188 -2.054688 13.828125 -1.234375 C 12.535156 -0.410156 10.847656 0 8.765625 0 L 0.34375 0 L 3.40625 -15.296875 L 11.140625 -15.296875 C 12.859375 -15.296875 14.171875 -14.984375 15.078125 -14.359375 C 15.992188 -13.742188 16.453125 -12.859375 16.453125 -11.703125 C 16.453125 -10.816406 16.207031 -10.050781 15.71875 -9.40625 C 15.238281 -8.757812 14.570312 -8.253906 13.71875 -7.890625 Z M 7.0625 -12.171875 L 6.46875 -9.21875 L 9.5625 -9.21875 C 10.332031 -9.21875 10.914062 -9.363281 11.3125 -9.65625 C 11.71875 -9.957031 11.921875 -10.394531 11.921875 -10.96875 C 11.921875 -11.769531 11.316406 -12.171875 10.109375 -12.171875 Z M 9 -3.125 C 9.769531 -3.125 10.375 -3.273438 10.8125 -3.578125 C 11.25 -3.890625 11.46875 -4.34375 11.46875 -4.9375 C 11.46875 -5.375 11.304688 -5.695312 10.984375 -5.90625 C 10.660156 -6.113281 10.222656 -6.21875 9.671875 -6.21875 L 5.859375 -6.21875 L 5.25 -3.125 Z M 9 -3.125" style="stroke:none"/>
      </g>
    </g>
    <g style="fill:#000000;fill-opacity:1;">
      <g transform="translate(230.310931, 278.218107)">
        <path d="M 8.609375 0.3125 C 7.066406 0.3125 5.722656 0.03125 4.578125 -0.53125 C 3.429688 -1.101562 2.546875 -1.898438 1.921875 -2.921875 C 1.304688 -3.941406 1 -5.109375 1 -6.421875 C 1 -8.171875 1.398438 -9.742188 2.203125 -11.140625 C 3.015625 -12.535156 4.144531 -13.625 5.59375 -14.40625 C 7.050781 -15.195312 8.703125 -15.59375 10.546875 -15.59375 C 12.085938 -15.59375 13.429688 -15.304688 14.578125 -14.734375 C 15.722656 -14.171875 16.601562 -13.378906 17.21875 -12.359375 C 17.84375 -11.335938 18.15625 -10.175781 18.15625 -8.875 C 18.15625 -7.125 17.75 -5.546875 16.9375 -4.140625 C 16.132812 -2.742188 15.003906 -1.648438 13.546875 -0.859375 C 12.097656 -0.078125 10.453125 0.3125 8.609375 0.3125 Z M 8.984375 -3.28125 C 9.941406 -3.28125 10.785156 -3.519531 11.515625 -4 C 12.242188 -4.476562 12.800781 -5.117188 13.1875 -5.921875 C 13.582031 -6.734375 13.78125 -7.628906 13.78125 -8.609375 C 13.78125 -9.640625 13.460938 -10.460938 12.828125 -11.078125 C 12.203125 -11.703125 11.316406 -12.015625 10.171875 -12.015625 C 9.210938 -12.015625 8.367188 -11.773438 7.640625 -11.296875 C 6.910156 -10.816406 6.347656 -10.171875 5.953125 -9.359375 C 5.566406 -8.546875 5.375 -7.65625 5.375 -6.6875 C 5.375 -5.65625 5.691406 -4.828125 6.328125 -4.203125 C 6.960938 -3.585938 7.847656 -3.28125 8.984375 -3.28125 Z M 8.984375 -3.28125" style="stroke:none"/>
      </g>
    </g>
    <g style="fill:#000000;fill-opacity:1;">
      <g transform="translate(247.632798, 278.218107)">
        <path d="M 11.359375 -2.96875 L 4.84375 -2.96875 L 3.078125 0 L -1.484375 0 L 8.328125 -15.296875 L 12.578125 -15.296875 L 16.28125 0 L 11.96875 0 Z M 10.703125 -6.15625 L 9.671875 -11.125 L 6.75 -6.15625 Z M 10.703125 -6.15625" style="stroke:none"/>
      </g>
    </g>
    <g style="fill:#000000;fill-opacity:1;">
      <g transform="translate(263.644043, 278.218107)">
        <path d="M 16.09375 -10.421875 C 16.09375 -9.023438 15.722656 -7.816406 14.984375 -6.796875 C 14.242188 -5.785156 13.203125 -5.050781 11.859375 -4.59375 L 14.453125 0 L 9.9375 0 L 7.671875 -4.0625 L 5.484375 -4.0625 L 4.671875 0 L 0.34375 0 L 3.40625 -15.296875 L 9.9375 -15.296875 C 11.882812 -15.296875 13.394531 -14.863281 14.46875 -14 C 15.550781 -13.144531 16.09375 -11.953125 16.09375 -10.421875 Z M 11.734375 -10 C 11.734375 -10.625 11.519531 -11.09375 11.09375 -11.40625 C 10.675781 -11.726562 10.085938 -11.890625 9.328125 -11.890625 L 7.0625 -11.890625 L 6.140625 -7.40625 L 8.71875 -7.40625 C 9.675781 -7.40625 10.414062 -7.628906 10.9375 -8.078125 C 11.46875 -8.535156 11.734375 -9.175781 11.734375 -10 Z M 11.734375 -10" style="stroke:none"/>
      </g>
    </g>
    <g style="fill:#000000;fill-opacity:1;">
      <g transform="translate(278.650474, 278.218107)">
        <path d="M 3.40625 -15.296875 L 10.046875 -15.296875 C 11.617188 -15.296875 12.976562 -15.035156 14.125 -14.515625 C 15.28125 -13.992188 16.164062 -13.25 16.78125 -12.28125 C 17.40625 -11.3125 17.71875 -10.175781 17.71875 -8.875 C 17.71875 -7.09375 17.3125 -5.53125 16.5 -4.1875 C 15.695312 -2.851562 14.570312 -1.820312 13.125 -1.09375 C 11.6875 -0.363281 10.035156 0 8.171875 0 L 0.34375 0 Z M 8.296875 -3.453125 C 9.347656 -3.453125 10.253906 -3.671875 11.015625 -4.109375 C 11.785156 -4.554688 12.363281 -5.171875 12.75 -5.953125 C 13.144531 -6.734375 13.34375 -7.617188 13.34375 -8.609375 C 13.34375 -9.640625 13.019531 -10.4375 12.375 -11 C 11.738281 -11.5625 10.800781 -11.84375 9.5625 -11.84375 L 7.03125 -11.84375 L 5.375 -3.453125 Z M 8.296875 -3.453125" style="stroke:none"/>
      </g>
    </g>
  </g>
</svg>
